<svg width="64" height="36" viewBox="0 0 64 36" fill="none" xmlns="http://www.w3.org/2000/svg">
<path d="M16.157 29.512C13.9277 29.512 12.0823 28.712 10.621 27.112C9.15967 25.5013 8.429 23.4 8.429 20.808C8.429 18.2267 9.17567 16.12 10.669 14.488C12.1623 12.856 14.045 12.04 16.317 12.04C17.4263 12.04 18.445 12.28 19.373 12.76C20.3117 13.2293 21.0157 13.8533 21.485 14.632L21.565 14.616V6.088H25.757V29H21.725V26.2L22.125 26.776L21.645 26.808C21.1437 27.6293 20.4023 28.2853 19.421 28.776C18.4397 29.2667 17.3517 29.512 16.157 29.512ZM17.117 25.928C18.4183 25.928 19.501 25.4427 20.365 24.472C21.2397 23.5013 21.677 22.2693 21.677 20.776C21.677 19.2613 21.2343 18.0347 20.349 17.096C19.4743 16.1467 18.397 15.672 17.117 15.672C15.837 15.672 14.7543 16.1467 13.869 17.096C12.9943 18.0347 12.557 19.2613 12.557 20.776C12.557 22.28 12.9943 23.5173 13.869 24.488C14.7437 25.448 15.8263 25.928 17.117 25.928ZM29.5918 29V12.552H33.8158V29H29.5918ZM31.7198 9.832C31.0158 9.832 30.4184 9.592 29.9278 9.112C29.4478 8.632 29.2078 8.04533 29.2078 7.352C29.2078 6.648 29.4478 6.06133 29.9278 5.592C30.4184 5.12267 31.0158 4.888 31.7198 4.888C32.4238 4.888 33.0104 5.12267 33.4798 5.592C33.9598 6.06133 34.1998 6.648 34.1998 7.352C34.1998 8.04533 33.9598 8.632 33.4798 9.112C33.0104 9.592 32.4238 9.832 31.7198 9.832ZM37.883 29V12.552H42.107V29H37.883ZM40.011 9.832C39.307 9.832 38.7097 9.592 38.219 9.112C37.739 8.632 37.499 8.04533 37.499 7.352C37.499 6.648 37.739 6.06133 38.219 5.592C38.7097 5.12267 39.307 4.888 40.011 4.888C40.715 4.888 41.3017 5.12267 41.771 5.592C42.251 6.06133 42.491 6.648 42.491 7.352C42.491 8.04533 42.251 8.632 41.771 9.112C41.3017 9.592 40.715 9.832 40.011 9.832ZM52.4157 29.512C50.8051 29.512 49.5304 29.0747 48.5917 28.2C47.6637 27.3147 47.1997 26.008 47.1997 24.28V8.072H51.4397V23.64C51.4397 24.4613 51.6051 25.0693 51.9357 25.464C52.2771 25.8587 52.7731 26.056 53.4237 26.056C53.6371 26.056 53.8504 26.0347 54.0638 25.992C54.2877 25.9493 54.5651 25.8747 54.8958 25.768C55.2264 25.6613 55.3918 25.608 55.3918 25.608V29C55.3918 29 55.1998 29.0533 54.8158 29.16C54.4424 29.2773 54.0691 29.3627 53.6958 29.416C53.3224 29.48 52.8957 29.512 52.4157 29.512ZM44.6397 15.896V12.552H55.3597V15.896H44.6397Z" fill="#0090FF"/>
</svg>
